<svg xmlns="http://www.w3.org/2000/svg" xmlns:xlink="http://www.w3.org/1999/xlink" fill="none" version="1.1" width="255.005615234375" height="50.001953125" viewBox="0 0 255.005615234375 50.001953125"><defs><mask id="master_svg0_17_3156" style="mask-type:alpha" maskUnits="userSpaceOnUse" x="0" y="0" width="50.0008544921875" height="50.001285552978516"><path d="M37.7431332109375,7.593774821875C36.8197322109375,7.273164721875,35.8687322109375,7.022254921875,34.9130322109375,6.859634921875L34.8991322109375,6.859634921875C34.4190332109375,6.780644921875,34.0773312109375,6.994374721875,33.9204332109375,7.129124621875C33.7588312109375,7.268514621875,33.4864312109375,7.570534721875,33.4864312109375,8.067705121875L33.4864312109375,16.324464421875C33.4864312109375,18.629064421875,32.7385332109375,20.798965421875,31.3211322109375,22.601865421875C30.8640332109375,23.182664421875,30.1854322109375,23.545065421875,29.4559322109375,23.596164421875C28.7357332109375,23.651865421875,28.0201322109375,23.396364421875,27.4938312109375,22.899164421875C24.8899322109375,20.436565421875,23.3941322109375,16.956365421875,23.3941322109375,13.360064421875L23.3941322109375,2.227114921875C23.3941322109375,1.567314821875,23.1078322109375,0.944694821875,22.6046332109375,0.517220851875C22.2075332109375,0.178029851875,21.7228322109375,0.001464843755,21.2195322109375,0.001464843755C21.0995332109375,0.001464843755,20.9748322109375,0.010757753875,20.8502332109375,0.033990043875L20.8040332109375,0.043282944875C19.4882312109375,0.270958841875,18.1724322109375,0.610149861875,16.9028322109375,1.056204821875C6.7920523109375,4.582864721875,0.0007324218775,14.140665421875,0.0007324218775,24.841363421875C0.0007324218775,38.711063421875,11.2149322109375,50.001964421875,25.0007322109375,50.001964421875C35.5270312109375,50.001964421875,45.0007322109375,43.250663421875,48.5649342109375,33.200363421875C49.0173342109375,31.936565421875,49.3682332109375,30.616964421875,49.6083332109375,29.274164421875C49.8668332109375,27.819765421875,50.0007322109375,26.323665421875,50.0007322109375,24.841363421875C50.0007322109375,17.081865421875,45.0746312109375,10.153965421875,37.7431332109375,7.593774821875ZM22.9508322109375,42.837165421875C22.6092322109375,43.640964421875,21.8382322109375,44.138164421875,20.9979322109375,44.138164421875C20.8317322109375,44.138164421875,20.6655332109375,44.119564421875,20.5039332109375,44.082363421875C16.9905322109375,43.241363421875,13.7588322109375,41.410663421875,11.1503322109375,38.785366421875C7.4153223109375,35.026466421875,5.3608422109375,30.077964421875,5.3608422109375,24.846065421875C5.3608422109375,20.687465421875,6.6581626109375,16.696165421875,9.1143026109375,13.304265421875C10.4485322109375,11.459665421875,12.0783322109375,9.861234621875,13.9619322109375,8.555584921875C14.7606322109375,7.998014921875,15.7948322109375,7.937604921875,16.6535322109375,8.392965321875C17.5076332109375,8.843665121875,18.0386332109375,9.731134421875,18.0386332109375,10.702264421875L18.0386332109375,13.364665421875C18.0386332109375,16.598564421875,18.8834322109375,19.786064421875,20.4855332109375,22.578565421875C20.9425312109375,23.377765421875,20.9425312109375,24.367464421875,20.4855332109375,25.166664421875C20.0284332109375,25.965864421875,19.1743312109375,26.463064421875,18.2602332109375,26.463064421875L15.3654332109375,26.463064421875C14.8160322109375,26.463064421875,14.4790322109375,26.769664421875,14.3313322109375,26.950864421875C14.1789322109375,27.132064421875,13.9388322109375,27.517765421875,14.0358322109375,28.066064421875C14.2112322109375,29.027864421875,14.4651332109375,29.985065421875,14.7929322109375,30.905065421875C16.1364322109375,34.701164421875,18.7495322109375,38.004764421875,22.1475312109375,40.202564421875C23.0247322109375,40.769466421875,23.3617322109375,41.879966421875,22.9555322109375,42.841766421875L22.9508322109375,42.837165421875ZM40.8733332109375,33.897365421875C40.5916332109375,34.180763421875,40.2962342109375,34.454963421875,39.9868312109375,34.710464421875C37.7015342109375,36.629463421875,34.8206332109375,37.688865421875,31.8751312109375,37.688865421875C29.2158322109375,37.688865421875,26.6535322109375,36.852466421875,24.4744322109375,35.268066421875L24.4513322109375,35.249466421875C23.8142322109375,34.784866421875,23.5233322109375,33.967063421875,23.7218322109375,33.181766421875C23.9204332109375,32.401165421875,24.5667322109375,31.829664421875,25.3608322109375,31.727464421875C26.6258312109375,31.569465421875,27.8677332109375,31.248865421875,29.0543332109375,30.774965421875C32.3045312109375,29.483165421875,35.0561332109375,27.090265421875,36.8012312109375,24.032964421875C37.8216322109375,22.244064421875,38.4725342109375,20.301864421875,38.7265322109375,18.252765421875C38.7726322109375,17.853164421875,38.9388312109375,17.490764421875,39.1928332109375,17.207264421875C39.4421312109375,16.919164421875,39.7791332109375,16.710064421875,40.1623302109375,16.607864421875C40.9333302109375,16.408065421875,41.7366332109375,16.696165421875,42.2075312109375,17.342063421875C43.8049312109375,19.553764421875,44.6498332109375,22.141864421875,44.6498332109375,24.841363421875C44.6498332109375,28.237964421875,43.3109322109375,31.453264421875,40.8825342109375,33.897365421875L40.8733332109375,33.897365421875Z" fill="#FFFFFF" fill-opacity="1"/></mask><linearGradient x1="0.5" y1="0" x2="0.5" y2="1" id="master_svg1_17_0311"><stop offset="0%" stop-color="#133DA7" stop-opacity="1"/><stop offset="47.26027250289917%" stop-color="#1D4EC3" stop-opacity="1"/><stop offset="100%" stop-color="#4133C7" stop-opacity="1"/></linearGradient><filter id="master_svg2_17_371" filterUnits="objectBoundingBox" color-interpolation-filters="sRGB" x="-0.46" y="-0.3836321145039655" width="1.8" height="1.9590802862599137"><feFlood flood-opacity="0" result="BackgroundImageFix"/><feColorMatrix in="SourceAlpha" type="matrix" values="0 0 0 0 0 0 0 0 0 0 0 0 0 0 0 0 0 0 127 0"/><feOffset dy="4" dx="-3"/><feGaussianBlur stdDeviation="5"/><feColorMatrix type="matrix" values="0 0 0 0 0 0 0 0 0 0 0 0 0 0 0 0 0 0 0.30000001192092896 0"/><feBlend mode="normal" in2="BackgroundImageFix" result="effect1_dropShadow"/><feBlend mode="normal" in="SourceGraphic" in2="effect1_dropShadow" result="shape"/></filter><linearGradient x1="0.5" y1="0" x2="0.5" y2="1" id="master_svg3_17_0219"><stop offset="0%" stop-color="#1453CF" stop-opacity="1"/><stop offset="50%" stop-color="#1875E2" stop-opacity="1"/><stop offset="100%" stop-color="#6784F7" stop-opacity="1"/></linearGradient><filter id="master_svg4_17_368" filterUnits="objectBoundingBox" color-interpolation-filters="sRGB" x="-0.38" y="-0.3999960022372213" width="1.8" height="1.7999920044744426"><feFlood flood-opacity="0" result="BackgroundImageFix"/><feColorMatrix in="SourceAlpha" type="matrix" values="0 0 0 0 0 0 0 0 0 0 0 0 0 0 0 0 0 0 127 0"/><feOffset dy="0" dx="1"/><feGaussianBlur stdDeviation="5"/><feColorMatrix type="matrix" values="0 0 0 0 0 0 0 0 0 0 0 0 0 0 0 0 0 0 0.30000001192092896 0"/><feBlend mode="normal" in2="BackgroundImageFix" result="effect1_dropShadow"/><feBlend mode="normal" in="SourceGraphic" in2="effect1_dropShadow" result="shape"/></filter><linearGradient x1="0.5" y1="0" x2="0.5" y2="1" id="master_svg5_17_1827"><stop offset="0%" stop-color="#1E86E8" stop-opacity="1"/><stop offset="44.30912733078003%" stop-color="#63B4FF" stop-opacity="1"/><stop offset="100%" stop-color="#003FC2" stop-opacity="1"/></linearGradient><linearGradient x1="0.5" y1="0" x2="0.5" y2="1" id="master_svg6_17_2887"><stop offset="0%" stop-color="#CEE8FF" stop-opacity="0.6000000238418579"/><stop offset="100%" stop-color="#CEE8FF" stop-opacity="1"/></linearGradient><linearGradient x1="0.5" y1="0" x2="0.5" y2="1" id="master_svg7_17_2967"><stop offset="0%" stop-color="#FFFFFF" stop-opacity="0.4000000059604645"/><stop offset="100%" stop-color="#FFFFFF" stop-opacity="0"/></linearGradient></defs><g mask="url(#master_svg0_17_3156)"><path d="M37.7427672109375,7.593042421875C36.8193662109375,7.272432321875,35.8683662109375,7.021522521875,34.9126662109375,6.858902421875L34.8987652109375,6.858902421875C34.4186672109375,6.779912421875,34.0769652109375,6.993642321875,33.9200672109375,7.128392221875C33.7584652109375,7.267782221875,33.4860652109375,7.569802321875,33.4860652109375,8.066972721875L33.4860652109375,16.323732421875C33.4860652109375,18.628332421875,32.7381672109375,20.798233421875,31.3207662109375,22.601133421875C30.8636662109375,23.181932421875,30.1850662109375,23.544332421875,29.4555662109375,23.595432421875C28.7353672109375,23.651132421875,28.0197662109375,23.395631421875,27.4934652109375,22.898431421875C24.8895662109375,20.435833421875,23.3937662109375,16.955633421875,23.3937662109375,13.359332421875L23.3937662109375,2.226382521875C23.3937662109375,1.566582421875,23.1074662109375,0.943962391875,22.6042672109375,0.516488431875C22.2071662109375,0.177297431875,21.7224652109375,0.000732421875,21.2191662109375,0.000732421875C21.0991672109375,0.000732421875,20.9744662109375,0.010025331775,20.8498672109375,0.033257621875L20.8036672109375,0.042550522875C19.4878652109375,0.270226421875,18.1720662109375,0.609417441875,16.9024662109375,1.055472421875C6.7916860109375,4.582132321875,0.0003662109375,14.139932421875,0.0003662109375,24.840631421875C0.0003662109375,38.710331421875,11.2145662109375,50.001232421875,25.0003662109375,50.001232421875C35.5266652109375,50.001232421875,45.0003662109375,43.249931421875,48.5645672109375,33.199630421875C49.0169682109375,31.935833421875,49.3678662109375,30.616231421875,49.6079672109375,29.273431421875C49.8664662109375,27.819032421875,50.0003662109375,26.322933421875,50.0003662109375,24.840631421875C50.0003662109375,17.081132421875,45.0742642109375,10.153232421875,37.7427672109375,7.593042421875ZM22.9504662109375,42.836433421875C22.6088662109375,43.640232421875,21.8378662109375,44.137432421875,20.9975662109375,44.137432421875C20.8313652109375,44.137432421875,20.6651672109375,44.118831421875,20.5035672109375,44.081630421875C16.9901652109375,43.240631421875,13.7584662109375,41.409931421875,11.1499662109375,38.784633421875C7.4149561109375,35.025734421875,5.3604760109375,30.077232421875,5.3604760109375,24.845333421875C5.3604760109375,20.686733421875,6.6577964109375,16.695432421875,9.1139364109375,13.303532421875C10.4481662109375,11.458932421875,12.0779662109375,9.860502221875,13.9615662109375,8.554852521875C14.7602662109375,7.997282521875,15.7944662109375,7.936872521875,16.6531662109375,8.392232921875C17.5072672109375,8.842932721875,18.0382672109375,9.730402021875,18.0382672109375,10.701532421875L18.0382672109375,13.363932421875C18.0382672109375,16.597831421875,18.8830662109375,19.785331421875,20.4851662109375,22.577833421875C20.9421652109375,23.377033421875,20.9421652109375,24.366731421875,20.4851662109375,25.165931421875C20.0280662109375,25.965131421875,19.1739652109375,26.462331421875,18.2598672109375,26.462331421875L15.3650662109375,26.462331421875C14.8156662109375,26.462331421875,14.4786662109375,26.768932421875,14.3309662109375,26.950132421875C14.1785662109375,27.131332421875,13.9384662109375,27.517032421875,14.0354662109375,28.065332421875C14.2108662109375,29.027132421875,14.4647662109375,29.984333421875,14.7925662109375,30.904333421875C16.1360662109375,34.700431421875,18.7491662109375,38.004032421875,22.1471652109375,40.201831421875C23.0243662109375,40.768734421875,23.3613662109375,41.879234421875,22.9551662109375,42.841034421875L22.9504662109375,42.836433421875ZM40.8729672109375,33.896633421875C40.5912662109375,34.180030421875,40.2958682109375,34.454231421875,39.9864652109375,34.709732421875C37.7011682109375,36.628730421875,34.8202672109375,37.688133421875,31.8747652109375,37.688133421875C29.2154652109375,37.688133421875,26.6531662109375,36.851734421875,24.4740662109375,35.267334421875L24.4509662109375,35.248733421875C23.8138652109375,34.784133421875,23.5229662109375,33.966331421875,23.7214662109375,33.181034421875C23.9200672109375,32.400432421875,24.5663662109375,31.828931421875,25.3604662109375,31.726732421875C26.6254652109375,31.568733421875,27.8673672109375,31.248132421875,29.0539662109375,30.774232421875C32.3041652109375,29.482433421875,35.0557672109375,27.089532421875,36.8008652109375,24.032232421875C37.8212662109375,22.243331421875,38.4721682109375,20.301132421875,38.7261662109375,18.252033421875C38.7722662109375,17.852432421875,38.9384652109375,17.490032421875,39.1924672109375,17.206531421875C39.4417652109375,16.918432421875,39.7787662109375,16.709331421875,40.1619642109375,16.607132421875C40.9329642109375,16.407333421875,41.7362672109375,16.695432421875,42.2071652109375,17.341331421875C43.8045652109375,19.553031421875,44.6494672109375,22.141132421875,44.6494672109375,24.840631421875C44.6494672109375,28.237232421875,43.3105662109375,31.452531421875,40.8821682109375,33.896633421875L40.8729672109375,33.896633421875Z" fill="url(#master_svg1_17_0311)" fill-opacity="1" style="mix-blend-mode:passthrough"/><path d="M39.6495014921875,16.823459653125Q40.0003664921875,14.928197853124999,40.0003664921875,13.000732453125Q40.0003664921875,10.617234953125,39.4661944921875,8.294366088605C45.8361324921875,11.274078853125,50.0008544921875,17.705699953125,50.0008544921875,24.840387453125C50.0008544921875,26.322689453125,49.8669544921875,27.818788453125,49.6084554921875,29.273187453125C49.3683544921875,30.615987453125,49.0174564921875,31.935588453125,48.5650554921875,33.199386453125C45.0008544921875,43.249687453125,35.5271534921875,50.000988453125,25.0008544921875,50.000988453125C11.2150544921875,50.000988453125,0.0008544921875,38.710086453125,0.0008544921875,24.840387453125C0.0008544921875,23.961170453125,0.0467026831875,23.089669453124998,0.1364732521875,22.228594453124998Q0.6467428821875,23.271703453125,1.2689106921875,24.252193453125003Q1.8910783921875,25.232685453125,2.6175577921875,26.138599453125Q3.3440372921875,27.044513453125,4.1659698921875,27.864807453125Q4.9879025921875,28.685096453125,5.8952660921875,29.409765453125C6.7301735921875,32.912563453125,8.5251884921875,36.142332453125,11.1504544921875,38.784389453125C13.7589544921875,41.409687453125,16.9906534921875,43.240387453125,20.5040554921875,44.081386453125C20.6656554921875,44.118587453125,20.8318534921875,44.137188453125,20.9980544921875,44.137188453125C21.8383544921875,44.137188453125,22.6093544921875,43.639987453125,22.9509544921875,42.836189453125L22.9556544921875,42.840789453125C23.3618544921875,41.878990453125,23.0248544921875,40.768489453125,22.1476534921875,40.201587453125C19.6484984921875,38.585153453125,17.5739194921875,36.370561453125,16.1167464921875,33.801805453125Q17.5516984921875,34.000732453124996,19.0003664921875,34.000732453124996Q21.3649334921875,34.000732453124996,23.6702934921875,33.474905453125004C23.6012644921875,34.164270453125,23.8936844921875,34.841739453125,24.4514544921875,35.248489453125L24.4745544921875,35.267089453124996C26.6536544921875,36.851490453124995,29.2159534921875,37.687889453124995,31.8752534921875,37.687889453124995C34.8207554921875,37.687889453124995,37.7016564921875,36.628486453125,39.9869534921875,34.709487453125C40.2963564921875,34.453987453124995,40.5917544921875,34.179786453125004,40.8734554921875,33.896389453124996L40.8826564921875,33.896389453124996C43.3110544921875,31.452287453125,44.6499554921875,28.236988453125,44.6499554921875,24.840387453125C44.6499554921875,22.140888453125,43.8050534921875,19.552787453125,42.2076534921875,17.341087353124998C41.7367554921875,16.695188553125,40.9334524921875,16.407089253125,40.1624524921875,16.606887853125002C39.9794234921875,16.655702553125,39.8069304921875,16.728905653125,39.6495014921875,16.823459653125Z" fill-rule="evenodd" fill="url(#master_svg3_17_0219)" fill-opacity="1" style="mix-blend-mode:passthrough" filter="url(#master_svg2_17_371)"/><path d="M28.000366,39.000732Q28.491337,39.000732,28.98172,38.976639Q29.472099,38.952553,29.960709,38.90443Q30.449316,38.856304,30.934973,38.784264Q31.420631,38.712219,31.902172,38.616436Q32.383713,38.520649,32.85997,38.401352Q33.336227,38.282059,33.806061,38.139538Q34.275894,37.997017,34.738163,37.831612Q35.200436,37.666206,35.654034,37.478317Q36.107635,37.290428,36.551468,37.080513Q36.9953,36.870594,37.428299,36.639153Q37.861298,36.407707,38.282417,36.155296Q38.703541,35.902885,39.111771,35.630119Q39.519997,35.357349,39.914352,35.06488Q40.308704,34.772408,40.688232,34.460941Q41.067757,34.149467,41.431545,33.819752Q41.795334,33.490036,42.142502,33.142864Q42.48967,32.795692,42.819389,32.431908Q43.149101,32.068123,43.460575,31.688595Q43.772041,31.309067,44.064514,30.914715Q44.356987,30.520363,44.629757,30.112133Q44.902527,29.703905,45.154938,29.282784Q45.407349,28.861664,45.638794,28.428665Q45.870239,27.995667,46.080154,27.55183Q46.29007,27.107998,46.477955,26.654398Q46.66584,26.200798,46.831249,25.738527Q46.996651,25.276257,47.139175,24.806425Q47.2817,24.336594,47.400993,23.860332Q47.52029,23.384075,47.616074,22.902536Q47.711857,22.420998,47.783897,21.935341Q47.855934,21.449682,47.90406,20.961075Q47.952183,20.472466,47.976276,19.982084Q48.000366,19.491703,48.000366,19.000732Q48.000366,17.569992,47.796707,16.15382C49.211788,18.765217,50,21.736029,50,24.839899C50,26.322201,49.8661,27.8183,49.607601,29.272699C49.3675,30.615499,49.016602,31.935101,48.564201,33.198898C45,43.249199,35.526299,50.0005,25,50.0005C11.2142,50.0005,0,38.709599,0,24.839899C0,14.1392,6.7913198,4.5813999,16.9021,1.05474C18.1717,0.60868502,19.487499,0.269494,20.803301,0.041818101L20.849501,0.0325252C20.9741,0.0092929099,21.098801,0,21.2188,0C21.359253,0,21.498259,0.013750491,21.634315,0.040948536Q21.045488,0.2386566,20.470064,0.47252238Q19.894642,0.70638818,19.334839,0.97551024Q18.775036,1.2446322,18.233013,1.5479734Q17.690989,1.8513145,17.168833,2.1877055Q16.646677,2.5240965,16.1464,2.8922405Q15.646126,3.2603848,15.169659,3.6588633Q14.693192,4.0573416,14.242369,4.4846187Q13.791548,4.9118958,13.368109,5.3663244Q12.94467,5.8207531,12.550246,6.300581Q12.155823,6.7804098,11.791934,7.2837892Q11.428045,7.787168,11.096094,8.3121576Q10.764144,8.8371477,10.46541,9.3817253Q10.166676,9.926302,9.9023104,10.488366Q9.6379452,11.05043,9.408967,11.627816Q9.1799889,12.205202,8.9872818,12.795685Q8.7945738,13.386168,8.6388788,13.98747C6.4905877,17.226402,5.3601098,20.96261,5.3601098,24.844601C5.3601098,30.0765,7.4145899,35.025002,11.1496,38.783901C13.7581,41.409199,16.989799,43.239899,20.503201,44.080898C20.664801,44.118099,20.830999,44.1367,20.9972,44.1367C21.8375,44.1367,22.6085,43.6395,22.9501,42.835701L22.9548,42.840302C23.361,41.878502,23.024,40.768002,22.146799,40.201099C20.442345,39.098671,18.935377,37.718014,17.687069,36.136532Q18.849337,36.836052,20.095415,37.372223Q21.341494,37.90839,22.648558,38.271385Q23.955624,38.634384,25.29973,38.817558Q26.643837,39.000732,28.000366,39.000732Z" fill-rule="evenodd" fill="url(#master_svg5_17_1827)" fill-opacity="1" style="mix-blend-mode:passthrough" filter="url(#master_svg4_17_368)"/></g><path d="M28.3341064453125 40.000732421875C28.3341064453125 36.68702392289024 31.02039794632774 34.000732421875 34.3341064453125 34.000732421875L44 34.000732421875C47.31370849898476 34.000732421875 50 36.68702392289024 50 40.000732421875L50 44.000732421875C50 47.31444092085976 47.31370849898476 50.000732421875 44 50.000732421875L34.3341064453125 50.000732421875C31.02039794632774 50.000732421875 28.3341064453125 47.31444092085976 28.3341064453125 44.000732421875Z" fill="#1660D4" fill-opacity="1"/><path d="M29.3341064453125 41.000732421875C29.3341064453125 37.68702392289024 32.02039794632774 35.000732421875 35.3341064453125 35.000732421875L43 35.000732421875C46.31370849898476 35.000732421875 49 37.68702392289024 49 41.000732421875L49 43.000732421875C49 46.31444092085976 46.31370849898476 49.000732421875 43 49.000732421875L35.3341064453125 49.000732421875C32.02039794632774 49.000732421875 29.3341064453125 46.31444092085976 29.3341064453125 43.000732421875Z" fill-opacity="0" stroke-opacity="1" stroke="#CEE8FF" fill="none" stroke-width="2"/><path d="M40.1160459109375,37.780517578125C40.5989923109375,37.780517578125,40.9904981109375,38.172022998125,40.9904981109375,38.654969458125L40.9904981109375,42.726934478125Q40.9904981109375,43.793364078125,40.5442271109375,44.581840478125Q40.0979547109375,45.370317978125,39.253655910937496,45.795754478125Q38.4093575109375,46.221191378125,37.2514629109375,46.221191378125Q36.0815070109375,46.221191378125,35.2372084109375,45.795754478125Q34.3929101809375,45.370317978125,33.9466380809375,44.581840478125Q33.5003662109375,43.793364078125,33.5003662109375,42.726934478125L33.5003662109375,38.654969278125C33.5003662109375,38.172022968125,33.8918716009375,37.780517578125,34.3748180309375,37.780517578125C34.8577645109375,37.780517578125,35.2492698109375,38.172022968125,35.2492698109375,38.654969398125L35.2492698109375,42.329859278125Q35.2492698109375,43.532428778125,35.7739408109375,44.122367878125Q36.2986119109375,44.712307978125,37.2514629109375,44.712307978125Q38.1922521109375,44.712307978125,38.7169237109375,44.122367878125Q39.2415943109375,43.532428778125,39.2415943109375,42.329859278125L39.2415943109375,38.654969398125C39.2415943109375,38.172022998125,39.6330995109375,37.780517578125,40.1160459109375,37.780517578125M43.6259142109375,46.085052478125C43.1429682109375,46.085052478125,42.7514629109375,45.693547278125,42.7514629109375,45.210600878125L42.7514629109375,38.654969338125C42.7514629109375,38.172022878125,43.1429682109375,37.780517578125,43.6259142109375,37.780517578125C44.1088612109375,37.780517578125,44.5003662109375,38.172022878125,44.5003662109375,38.654969218125L44.5003662109375,45.210600878125C44.5003662109375,45.693547278125,44.1088612109375,46.085052478125,43.6259142109375,46.085052478125" fill="url(#master_svg6_17_2887)" fill-opacity="1"/><path d="M40.1160459109375,37.780517578125C40.5989923109375,37.780517578125,40.9904981109375,38.172022998125,40.9904981109375,38.654969458125L40.9904981109375,42.726934478125Q40.9904981109375,43.793364078125,40.5442271109375,44.581840478125Q40.0979547109375,45.370317978125,39.253655910937496,45.795754478125Q38.4093575109375,46.221191378125,37.2514629109375,46.221191378125Q36.0815070109375,46.221191378125,35.2372084109375,45.795754478125Q34.3929101809375,45.370317978125,33.9466380809375,44.581840478125Q33.5003662109375,43.793364078125,33.5003662109375,42.726934478125L33.5003662109375,38.654969278125C33.5003662109375,38.172022968125,33.8918716009375,37.780517578125,34.3748180309375,37.780517578125C34.8577645109375,37.780517578125,35.2492698109375,38.172022968125,35.2492698109375,38.654969398125L35.2492698109375,42.329859278125Q35.2492698109375,43.532428778125,35.7739408109375,44.122367878125Q36.2986119109375,44.712307978125,37.2514629109375,44.712307978125Q38.1922521109375,44.712307978125,38.7169237109375,44.122367878125Q39.2415943109375,43.532428778125,39.2415943109375,42.329859278125L39.2415943109375,38.654969398125C39.2415943109375,38.172022998125,39.6330995109375,37.780517578125,40.1160459109375,37.780517578125ZM43.6259142109375,46.085052478125C43.1429682109375,46.085052478125,42.7514629109375,45.693547278125,42.7514629109375,45.210600878125L42.7514629109375,38.654969338125C42.7514629109375,38.172022878125,43.1429682109375,37.780517578125,43.6259142109375,37.780517578125C44.1088612109375,37.780517578125,44.5003662109375,38.172022878125,44.5003662109375,38.654969218125L44.5003662109375,45.210600878125C44.5003662109375,45.693547278125,44.1088612109375,46.085052478125,43.6259142109375,46.085052478125ZM40.1160464109375,37.980517598125Q39.8366794109375,37.980517608125,39.6391373109375,38.178059908125Q39.4415946109375,38.375602368125,39.4415946109375,38.654969458125L39.4415946109375,42.329859778125Q39.4415946109375,43.608499978124996,38.866370210937504,44.255280978125Q38.2820339109375,44.912308178125,37.2514629109375,44.912308178125Q36.2088308109375,44.912308178125,35.6244943109375,44.255280978125Q35.0492699109375,43.608499478125,35.0492699109375,42.329859778125L35.0492699109375,38.654969458125Q35.0492699109375,38.375602368125,34.8517275109375,38.178059938125Q34.6541852109375,37.980517598125,34.3748180909375,37.980517518125Q34.0954510009375,37.980517538125,33.8979085709375,38.178059908125Q33.7003662309375,38.375602248125,33.7003662309375,38.654969338125L33.7003662309375,42.726934478125Q33.7003662309375,43.740690678125,34.1206929109375,44.483326878125Q34.5370842109375,45.219010878125,35.3272070109375,45.617148378125Q36.1290498109375,46.021191578125,37.2514629109375,46.021191578125Q38.3618159109375,46.021191578125,39.1636581109375,45.617148378125Q39.9537816109375,45.219010378125,40.3701725109375,44.483327378125Q40.7904982109375,43.740690678125,40.7904982109375,42.726934478125L40.7904982109375,38.654969518125Q40.7904982109375,38.375602368125,40.5929561109375,38.178059968125Q40.3954134109375,37.980517598125,40.1160464109375,37.980517598125ZM43.6259142109375,45.885052678125Q43.9052822109375,45.885052678125,44.1028242109375,45.687510478125Q44.3003662109375,45.489968278125,44.3003662109375,45.210601378125L44.3003662109375,38.654969278125Q44.3003662109375,38.375602248125,44.1028242109375,38.178059878125Q43.9052822109375,37.980517598125,43.6259142109375,37.980517658125Q43.3465481109375,37.980517658125,43.149005910937504,38.178059908125Q42.9514637109375,38.375602308124996,42.9514637109375,38.654969398125L42.9514637109375,45.210600378125Q42.9514637109375,45.489967778125,43.149005910937504,45.687510478125Q43.3465481109375,45.885052678125,43.6259142109375,45.885052678125Z" fill-rule="evenodd" fill="url(#master_svg7_17_2967)" fill-opacity="1"/><path d="M84.60100972851562,38.675708421875Q87.12927672851562,38.675708421875,88.96583972851562,37.344259421875Q89.73720172851563,36.784999421875,90.37813172851563,36.041149421875005C91.37752372851563,34.881273421875,93.04326072851563,34.294328421875,94.36951472851563,35.059270421875L95.77515172851562,35.869999421875C96.87141772851562,36.502290421875,97.39207272851563,37.833423421875,96.73452172851563,38.914726421875Q95.37904372851563,41.143734421875,92.94908572851563,42.741920421875Q89.51446172851563,45.000839421875,84.74410672851562,45.000629421875Q80.11690872851563,45.000629421875,76.30064012851562,42.765697421875Q72.48440172851562,40.530557421875,70.24237062851563,36.416732421875Q68.00032424926762,32.303125421874995,68.00039672851562,26.976905421875Q68.00039672851562,21.650618421875002,70.21852112851562,17.560853021874998Q72.43671032851563,13.471023521875,76.27679062851563,11.235932821875Q80.11688572851563,9.000791903331,84.74410672851562,9.000732421875Q89.51440772851562,9.000732421875,92.94908572851563,11.259708621875Q95.37907572851563,12.857892721875,96.73454272851562,15.086897821874999C97.39209972851563,16.168223421875,96.87137372851562,17.499324821875,95.77506872851562,18.131589921874998L94.36939472851563,18.942275021875C93.04317472851562,19.707136421875,91.37751172851563,19.120182421875,90.37812772851562,17.960396721875Q89.73719972851562,17.216598521875,88.96583972851562,16.657369121875Q87.12927672851562,15.325798021875,84.60100972851562,15.325652621875001Q81.92965272851562,15.325652621875001,79.83073772851563,16.752472921875Q77.73180012851563,18.179155321875,76.51527782851562,20.818416421875Q75.29885482851563,23.457781421874998,75.29896162851563,26.976905421875Q75.29896162851563,30.496059421875,76.51527782851562,33.159170421875004Q77.73170852851563,35.822315421875004,79.83073772851563,37.249157421875Q81.92967572851562,38.675840421875,84.60100972851562,38.675708421875ZM145.5178527285156,34.478548421875004L145.5178527285156,41.826732421875C145.5178527285156,43.264480421875,144.35233272851562,44.430008421875,142.91458172851563,44.430008421875L141.20414772851564,44.430008421875C139.76639572851562,44.430008421875,138.60087572851563,43.264480421875,138.60087572851563,41.826732421875L138.60087572851563,12.222178921874999C138.60087572851563,10.784431221875,139.76639572851562,9.618905481875,141.20414772851564,9.618905481875L150.66970872851562,9.618905481875Q154.77220172851563,9.618905481875,157.87287872851562,10.998173921875Q160.97355672851563,12.377301721875,162.6432797285156,14.921462521875Q164.31286572851562,17.465716321875,164.3127437285156,20.747088421875Q164.3127437285156,24.076018421875,162.59558072851564,26.596490421875Q160.87824972851564,29.116968421875,157.77748072851563,30.448452421875L164.70212572851563,40.300752421875C165.9184267285156,42.031295421875,164.67247772851562,44.413116421875,162.55728872851563,44.400928421875L160.72121472851563,44.390350421875C159.86388372851565,44.385410421875,159.06395672851562,43.958667421875,158.58239772851562,43.249347421875L151.63516272851564,33.016315421875C151.1506197285156,32.302604421875,150.3439937285156,31.875272421875,149.48134572851563,31.875272421875L148.1211247285156,31.875272421875C146.68337272851562,31.875272421875,145.5178527285156,33.040798421874996,145.5178527285156,34.478548421875004M145.5178527285156,18.071581821875L145.5178527285156,23.422594421875C145.5178527285156,24.860344421875,146.68337272851562,26.025869421875,148.1211247285156,26.025869421875L149.85882572851563,26.025869421875Q152.91183472851563,26.025869421875,154.93914772851562,24.717928421875Q156.96652172851563,23.410135421874998,156.96659872851563,20.747088421875Q156.96659872851563,18.036389321875,154.96299772851563,16.752472921875Q152.95945772851564,15.468456721875,149.85882572851563,15.468307521875001L148.1211247285156,15.468307521875001C146.68337272851562,15.468307521875001,145.5178527285156,16.633832921875,145.5178527285156,18.071581821875M189.38999672851563,29.735174421875L180.19439672851564,29.735174421875C179.08982672851562,29.735174421875,178.19439672851564,30.630603421875,178.19439672851564,31.735174421875L178.19439672851564,36.390400421875C178.19439672851564,37.494970421874996,179.08982672851562,38.390400421875,180.19439672851564,38.390400421875L191.53671672851561,38.390400421875C193.20450672851564,38.390400421875,194.55651672851565,39.742410421875,194.55651672851565,41.410202421875C194.55651672851565,43.077995421875,193.20450672851564,44.430008421875,191.53671672851561,44.430008421875L173.88068672851563,44.430008421875C172.44293672851563,44.430008421875,171.27741672851562,43.264480421875,171.27741672851562,41.826732421875L171.27741672851562,12.222178921874999C171.27741672851562,10.784431221875,172.44293672851563,9.618905481875,173.88068672851563,9.618905481875L191.03580672851564,9.618905481875C192.69046672851562,9.618905481875,194.03182672851563,10.960273121875,194.03182672851563,12.614934221875C194.03182672851563,14.269595121875,192.69046672851562,15.610962821874999,191.03580672851564,15.610962821874999L180.19439672851564,15.610962821874999C179.08982672851562,15.610962821874999,178.19439672851564,16.506393421875,178.19439672851564,17.610962821875L178.19439672851564,21.790669421875002C178.19439672851564,22.895238421875,179.08982672851562,23.790669421875002,180.19439672851564,23.790669421875002L189.38999672851563,23.790669421875002C191.03152672851564,23.790669421875002,192.36224672851563,25.121393421875,192.36224672851563,26.762922421875C192.36224672851563,28.404451421875,191.03152672851564,29.735174421875,189.38999672851563,29.735174421875" fill="#000000" fill-opacity="1"/><path d="M99.5357666015625,26.976905421875Q99.5357666015625,21.507949421875,101.7301712015625,17.418197621875002Q103.9245224015625,13.328368221875,107.7168961015625,11.164605121875Q111.50929260156249,9.000798947185,116.1842116015625,9.000732421875Q120.85911560156251,9.000732421875,124.65139760156251,11.164605121875Q128.4437866015625,13.328408721875,130.6621016015625,17.418197621875002Q132.8802836015625,21.508025421875,132.8802226015625,26.976905421875Q132.8802226015625,32.493417421875,130.6621016015625,36.583164421875Q128.4439006015625,40.672992421875,124.65139760156251,42.837024421875Q120.8590086015625,45.000831421875,116.1842116015625,45.000629421875Q111.5093156015625,45.000629421875,107.7168961015625,42.837024421875Q103.9245071015625,40.673217421875,101.7301712015625,36.583164421875Q99.5358352661135,32.493335421875,99.5357666015625,26.976905421875ZM106.8343353015625,26.976905421875Q106.8343353015625,30.448505421875,108.0030823015625,33.111618421875Q109.1718063015625,35.774761421875,111.2945636015625,37.225380421875Q113.4173356015625,38.675844421875,116.1842116015625,38.675708421875Q118.95099660156251,38.675708421875,121.0737306015625,37.225380421875Q123.1965176015625,35.774917421875,124.3652036015625,33.111618421875Q125.5339356015625,30.448474421875,125.5339586015625,26.976905421875Q125.5339586015625,23.505307421875003,124.3652036015625,20.865967421875Q123.1964876015625,18.226603521875,121.0737306015625,16.776248421875Q118.9509426015625,15.325787021875,116.1842116015625,15.325652621875001Q113.4174266015625,15.325652621875001,111.2945636015625,16.776248421875Q109.1717682015625,18.226713221875002,108.0030823015625,20.865967421875Q106.8343506015625,23.505334421875,106.8343353015625,26.976905421875Z" fill="#1844B1" fill-opacity="1"/><path d="M236.8103012109375,9.6005859375L238.5206952109375,9.6005859375C239.9584422109375,9.6005859375,241.1239702109375,10.7661116375,241.1239702109375,12.2038605375L241.1239702109375,30.3350639375Q241.1239702109375,34.8053399375,239.3589552109375,38.1104929375Q237.59394221093748,41.4156439375,234.2547262109375,43.1990049375Q230.9155122109375,44.9823569375,226.3360192109375,44.9823569375Q221.7088232109375,44.9823569375,218.3696074109375,43.1990049375Q215.0303929109375,41.4156439375,213.2653795109375,38.1104929375Q211.5003662109375,34.8053399375,211.5003662109375,30.3350639375L211.5003662109375,12.2038607375C211.5003662109375,10.7661116375,212.6658919109375,9.6005859375,214.1036408109375,9.6005859375L215.8140359109375,9.6005859375C217.2517853109375,9.6005859375,218.4173107109375,10.7661113375,218.4173107109375,12.203860237499999L218.4173107109375,28.6706009375Q218.4173107109375,33.711551937500005,220.4923944109375,36.1844689375Q222.5674772109375,38.6573909375,226.3360192109375,38.6573909375Q230.0568562109375,38.6573909375,232.1319412109375,36.1844689375Q234.2070252109375,33.711551937500005,234.2070252109375,28.6706009375L234.2070252109375,12.2038600375C234.2070252109375,10.7661113375,235.3725512109375,9.6005859375,236.8103012109375,9.6005859375M252.4022862109375,44.4116819375L250.6918942109375,44.4116819375C249.2541462109375,44.4116819375,248.0886192109375,43.2461549375,248.0886192109375,41.8084069375L248.0886192109375,12.2038610375C248.0886192109375,10.7661116375,249.2541462109375,9.6005859375,250.6918942109375,9.6005859375L252.4022862109375,9.6005859375C253.84003421093752,9.6005859375,255.0055622109375,10.7661116375,255.0055622109375,12.2038605375L255.0055622109375,41.8084069375C255.0055622109375,43.2461549375,253.84003421093752,44.4116819375,252.4022862109375,44.4116819375" fill="#000000" fill-opacity="1"/></svg>